<?xml version="1.0" standalone="no"?>
<!DOCTYPE svg PUBLIC "-//W3C//DTD SVG 20010904//EN" "http://www.w3.org/TR/2001/REC-SVG-20010904/DTD/svg10.dtd">
<!-- Created using Krita: https://krita.org -->
<svg xmlns="http://www.w3.org/2000/svg" 
    xmlns:xlink="http://www.w3.org/1999/xlink"
    xmlns:krita="http://krita.org/namespaces/svg/krita"
    xmlns:sodipodi="http://sodipodi.sourceforge.net/DTD/sodipodi-0.dtd"
    width="230.4pt"
    height="230.4pt"
    viewBox="0 0 230.4 230.4">
<defs/>
<path id="shape0" transform="matrix(0.430765177876206 0 0 0.657019739243655 69.9310275735164 195.055541389388)" fill="#ffffff" fill-rule="evenodd" stroke-opacity="0" stroke="#000000" stroke-width="0" stroke-linecap="square" stroke-linejoin="bevel" d="M0 3.56382L10.6125 19.1767L105.954 52.4006L203.191 17.8191L210.179 0" sodipodi:nodetypes="ccccc"/><path id="shape1" transform="matrix(0.390098553774736 0.278671415379249 -0.182706750870295 0.594993428540458 88.720335186376 144.910312595456)" fill="#ffffff" fill-rule="evenodd" stroke="#000000" stroke-width="15.84" stroke-linecap="square" stroke-linejoin="bevel" d="M77.1425 17.6274C83.1069 16.3628 170.216 0.790289 176.86 5.94848e-05C177.472 -0.0727225 105.475 66.667 101.268 69.1377C100.537 69.567 -0.60202 85.1103 0.00270098 84.5198C5.11666 79.5261 76.5397 17.7553 77.1425 17.6274Z" sodipodi:nodetypes="cssss"/><path id="shape01" transform="matrix(0.905594496672637 0.424144684700938 -0.424144684700938 0.905594496672637 52.9075454833995 90.2686486584669)" fill="#ffffff" fill-rule="evenodd" stroke="#000000" stroke-width="5.28" stroke-linecap="square" stroke-linejoin="bevel" d="M77.091 17.4401L175.722 0C176.34 0 145.012 30.9141 101.766 70.4154C101.137 70.9898 0 83.2289 0 82.301C50.7754 39.0604 76.4724 17.4401 77.091 17.4401Z" sodipodi:nodetypes="ccscc"/><path id="shape11" transform="matrix(1.0000000529819 0 0 1.0000000529819 12.5582170992313 142.200691344701)" fill="#ffffff" fill-rule="evenodd" stroke-opacity="0" stroke="#000000" stroke-width="0" stroke-linecap="square" stroke-linejoin="bevel" d="M0 2.20617L3.28178 21.5193L102.642 53.1993L202.002 21.1593L204.835 0" sodipodi:nodetypes="ccccc"/><path id="shape2" transform="matrix(0.905594496672637 0.424144684700938 -0.424144684700938 0.905594496672637 52.8167478902701 66.6771003346936)" fill="#ffffff" fill-rule="evenodd" stroke="#000000" stroke-width="10.08" stroke-linecap="square" stroke-linejoin="bevel" d="M77.1425 17.6274C83.1069 16.3628 170.216 0.790289 176.86 5.94848e-05C177.472 -0.0727225 105.475 66.667 101.268 69.1377C100.537 69.567 -0.60202 85.1103 0.00270098 84.5198C5.11666 79.5261 76.5397 17.7553 77.1425 17.6274Z" sodipodi:nodetypes="cssss"/><path id="shape02" transform="matrix(1.00000007947286 0 0 0.800504901606129 61.2000048637393 37.0238335769522)" fill="#ffffff" fill-rule="evenodd" stroke="#000000" stroke-width="10.08" stroke-linecap="square" stroke-linejoin="bevel" d="M98.4 8.12893L108 132.449C79.7457 146.791 8.90324 143.889 0 132.209L6.24 8.60893C6.92427 -3.26728 98.9944 -2.30946 98.4 8.12893Z" sodipodi:nodetypes="ccccc"/><path id="shape01" transform="matrix(1.00000007947286 0 0 0.800504901606129 90.7220949532329 80.17385657582)" fill="#000000" fill-rule="evenodd" stroke="#000000" stroke-width="2.88" stroke-linecap="square" stroke-linejoin="bevel" d="M4.92935 17.2752C19.4101 -5.9173 33.3301 -5.7573 46.6893 17.7552L52.6893 79.8552C34.7603 84.7672 17.2403 85.1872 0.129348 81.1152C-0.79849 81.1152 3.52151 26.3952 4.92935 17.2752Z" sodipodi:nodetypes="ccccc"/><path id="shape02" transform="matrix(1.00000007947286 0 0 0.800504901606129 87.8400069808963 51.7602815457546)" fill="#000000" fill-rule="evenodd" stroke="#000000" stroke-width="2.88" stroke-linecap="square" stroke-linejoin="bevel" d="M1.68 2.22045e-16L11.04 0C11.6586 3.78746e-17 12.2186 4.72 12.72 14.16C12.72 15.0878 11.9678 15.84 11.04 15.84L1.68 15.84C0.752162 15.84 1.08421e-16 15.0878 2.22045e-16 14.16C0.501441 4.72 1.06144 1.8417e-16 1.68 2.22045e-16Z" sodipodi:nodetypes="ccccccc"/><path id="shape03" transform="matrix(1.00000004291026 0 0 0.800504872337596 130.289380886267 52.1642716610854)" fill="#000000" fill-rule="evenodd" stroke="#000000" stroke-width="2.88" stroke-linecap="square" stroke-linejoin="bevel" d="M1.68 2.22045e-16L11.04 0C11.6586 3.78746e-17 12.2186 4.72 12.72 14.16C12.72 15.0878 11.9678 15.84 11.04 15.84L1.68 15.84C0.752162 15.84 1.08421e-16 15.0878 2.22045e-16 14.16C0.501441 4.72 1.06144 1.8417e-16 1.68 2.22045e-16Z" sodipodi:nodetypes="ccccccc"/><path id="shape011" transform="matrix(1.0000000529819 0 0 0.800504880399992 55.4400007412141 5.04000026702881)" fill="#ffffff" fill-rule="evenodd" stroke="#000000" stroke-width="10.08" stroke-linecap="square" stroke-linejoin="bevel" d="M121.2 9.9547L121.087 11.1162L120.975 12.2608L120.863 13.3884L120.753 14.4991L120.643 15.5928L120.535 16.6695L120.427 17.7293L120.321 18.7721L120.215 19.7979L120.11 20.8068L120.007 21.7987L119.904 22.7737L119.802 23.7317L119.701 24.6727L119.601 25.5967L119.502 26.5038L119.404 27.394L119.307 28.2672L119.211 29.1234L119.116 29.9626L119.022 30.7849L118.928 31.5902L118.836 32.3786L118.744 33.15L118.654 33.9044L118.565 34.6419L118.476 35.3624L118.388 36.0659L118.302 36.7525L118.216 37.4222L118.131 38.0748L118.047 38.7105L117.965 39.3292L117.883 39.931L117.802 40.5158L117.722 41.0837L117.643 41.6345L117.564 42.1685L117.487 42.6854L117.411 43.1854L117.336 43.6684L117.262 44.1345L117.188 44.5836L117.116 45.0158L117.044 45.4309L116.974 45.8291L116.904 46.2104L116.836 46.5747L116.768 46.922L116.701 47.2524L116.635 47.5658L116.571 47.8622L116.507 48.1417L116.444 48.4042L116.382 48.6498L116.321 48.8784L116.261 49.09L116.201 49.2846L116.143 49.4623L116.086 49.6231L116.03 49.7669L115.974 49.8937L115.92 50.0035L115.856 50.1025L115.777 50.1838L115.683 50.2478L115.574 50.2952L115.448 50.3262L115.306 50.3416L115.146 50.3416L114.968 50.3268L114.772 50.2977L114.556 50.2548L114.321 50.1986L114.065 50.1295L113.788 50.048L113.489 49.9546L113.169 49.8498L112.825 49.7341L112.458 49.6079L112.067 49.4718L111.651 49.3262L111.21 49.1716L110.743 49.0085L110.249 48.8374L109.729 48.6587L109.181 48.473L108.604 48.2807L107.999 48.0824L107.364 47.8784L106.699 47.6693L106.003 47.4555L105.276 47.2376L104.518 47.0161L103.726 46.7913L102.902 46.5639L102.043 46.3342L101.151 46.1028L100.223 45.8702L99.2599 45.6367L98.2606 45.403L97.2246 45.1695L96.1512 44.9367L95.0398 44.7051L93.8899 44.4751L92.7008 44.2472L91.4719 44.0219L90.2026 43.7998L88.8923 43.5813L87.5405 43.3668L86.1464 43.1569L84.7095 42.952L83.2292 42.7526L81.7049 42.5592L80.136 42.3724L78.5219 42.1925L76.8619 42.02L75.1555 41.8555L73.402 41.6995L71.6009 41.5523L69.7516 41.4145L67.8534 41.2866L65.9058 41.1691L63.908 41.0624L61.8597 40.9671L59.76 40.8835L57.5123 40.9199L55.3218 40.9709L53.1879 41.0361L51.1097 41.1149L49.0866 41.2067L47.1178 41.311L45.2026 41.4271L43.3403 41.5545L41.5302 41.6927L39.7715 41.841L38.0636 41.999L36.4056 42.166L34.7969 42.3415L33.2368 42.5249L31.7244 42.7157L30.2592 42.9132L28.8404 43.1169L27.4672 43.3263L26.139 43.5408L24.8549 43.7597L23.6144 43.9827L22.4166 44.209L21.2609 44.4381L20.1464 44.6694L19.0726 44.9025L18.0386 45.1366L17.0438 45.3713L16.0874 45.606L15.1687 45.8401L14.287 46.073L13.4415 46.3042L12.6316 46.5331L11.8564 46.7592L11.1154 46.9818L10.4077 47.2005L9.73265 47.4146L9.08951 47.6236L8.47757 47.8269L7.89608 48.0239L7.34435 48.2142L6.82163 48.397L6.32721 48.5719L5.86036 48.7382L5.42036 48.8955L5.00649 49.0431L4.61802 49.1805L4.25424 49.3071L3.91441 49.4224L3.59782 49.5257L3.30373 49.6166L3.03143 49.6944L2.7802 49.7586L2.54931 49.8086L2.33803 49.8438L2.14565 49.8637L1.97144 49.8677L1.81468 49.8553L1.67464 49.8259L1.55061 49.7788L1.44185 49.7137L1.34764 49.6298L1.26727 49.5266L1.2 49.4035L1.17832 49.3471L1.15673 49.2728L1.13522 49.1806L1.11379 49.0705L1.09245 48.9424L1.0712 48.7965L1.05002 48.6327L1.02894 48.4509L1.00794 48.2513L0.987022 48.0338L0.966191 47.7983L0.945445 47.545L0.924784 47.2737L0.904208 46.9846L0.883717 46.6775L0.863311 46.3525L0.842989 46.0097L0.822753 45.6489L0.802601 45.2702L0.782534 44.8736L0.762553 44.4591L0.742656 44.0268L0.722844 43.5765L0.703117 43.1083L0.683475 42.6222L0.663918 42.1182L0.644445 41.5962L0.625058 41.0564L0.605756 40.4987L0.586538 39.9231L0.567406 39.3296L0.548358 38.7181L0.529395 38.0888L0.510517 37.4416L0.491724 36.7764L0.473016 36.0934L0.454393 35.3924L0.435855 34.6736L0.417402 33.9368L0.399034 33.1822L0.38075 32.4096L0.362552 31.6191L0.344438 30.8108L0.32641 29.9845L0.308466 29.1403L0.290607 28.2782L0.272833 27.3982L0.255144 26.5004L0.23754 25.5846L0.220021 24.6509L0.202587 23.6993L0.185238 22.7297L0.167973 21.7423L0.150794 20.737L0.133699 19.7138L0.11669 18.6727L0.0997649 17.6137L0.0829251 16.5367L0.0661703 15.4419L0.0495003 14.3292L0.0329153 13.1985L0.0164152 12.05L0 10.8835L0.957467 10.1171L2.01665 9.38119L3.17408 8.67553L4.42628 7.99979L5.7698 7.35367L7.20115 6.73684L8.71687 6.14902L10.3135 5.58988L11.9875 5.05911L13.7356 4.55641L15.5541 4.08146L17.4396 3.63396L19.145 3.26615L19.483 14.2029L19.4821 14.5171L19.4817 14.8514L19.4853 15.1952L19.4964 15.5381L19.5186 15.8695L19.5553 16.1788L19.61 16.4555L19.6862 16.6891L19.7875 16.869L19.9172 16.9846L20.079 17.0255L31.5102 14.9061L31.7826 14.8534L32.0327 14.7032L32.2533 14.4676L32.4372 14.1585L32.5775 13.7879L32.6669 13.3678L32.6983 12.9102L32.6983 1.38332L33.8119 1.25307L36.1087 1.014L38.4413 0.799591L40.8062 0.609533L43.2 0.443516L45.6192 0.301232L48.0603 0.182371L50.5199 0.0866223L52.9944 0.0136777L53.6684 0L53.6684 10.3556L53.7128 10.8132L53.8391 11.2333L54.0375 11.6039L54.2976 11.913L54.6096 12.1486L54.9632 12.2987L55.3484 12.3514L65.2575 12.8872L65.6427 12.8344L65.9963 12.6843L66.3082 12.4487L66.5684 12.1396L66.7667 11.769L66.8931 11.3489L66.9375 10.8913L66.9375 0.629409L67.6333 0.651278L70.1028 0.74962L72.5561 0.86798L74.9896 1.00605L77.4 1.16352L79.7837 1.34007L82.1373 1.53541L84.4573 1.74922L86.7403 1.98118L88.9827 2.231L90.6148 2.4295L90.6148 12.5843L90.6462 13.042L90.7356 13.462L90.8758 13.8326L91.0598 14.1417L91.2804 14.3773L91.5305 14.5275L91.8029 14.5802L102.868 16.164L103.03 16.1231L103.16 16.0074L103.261 15.8275L103.337 15.5939L103.392 15.3172L103.429 15.0079L103.451 14.6766L103.462 14.3337L103.466 13.9898L103.465 13.6555L103.464 13.3414L103.76 3.76798L104.476 3.90877L106.269 4.29025L107.991 4.68681L109.637 5.09812L111.205 5.52387L112.69 5.96376L114.09 6.41748L115.401 6.88472L116.619 7.36517L117.741 7.85852L118.764 8.36445L119.683 8.88267L120.497 9.41285L121.2 9.9547" sodipodi:nodetypes="cccccccccccccccccccccccccccccccccccccccccccccccccccccccccccccccccccccccccccccccccccccccccccccccccccccccccccccccccccccccccccccccccccccccccccccccccccccccccccccccccccccccccccccccccccccccccccccccccccccccccccccccccccccccccccccccccccccccccccccccccccccccccccccccccccccccccccccccccccccccccccccccccccccccccccccccccccccccccccccccccccccccccccccccccccccccccccccccccccccccc"/>
</svg>
