# Blender 5.0.0
# www.blender.org
mtllib crate.mtl
o crate
v -0.600249 -0.649892 0.849892
v -0.600249 0.649892 0.849892
v 0.600247 -0.649892 0.849892
v 0.600247 0.649892 0.849892
v 0.600249 -0.649892 -0.849893
v 0.600249 0.649892 -0.849893
v -0.600248 -0.649892 -0.849892
v -0.600248 0.649892 -0.849892
v 0.849892 -0.649892 0.600249
v 0.849892 0.649892 0.600249
v 0.849892 -0.649892 -0.600247
v 0.849892 0.649892 -0.600247
v -0.849893 -0.649892 -0.600249
v -0.849893 0.649892 -0.600249
v -0.849892 -0.649892 0.600248
v -0.849892 0.649892 0.600248
v -0.040001 -0.649892 0.849892
v -0.040001 0.649892 0.849892
v 0.039999 -0.649892 0.849892
v -0.000001 -0.649892 0.809892
v -0.000001 0.649892 0.809892
v 0.039999 0.649892 0.849892
v 0.595288 -0.800000 0.932685
v 0.555288 -0.800000 0.892685
v 0.555288 0.800000 0.892685
v 0.595288 0.800000 0.932685
v 0.555288 -0.800000 0.595288
v 0.595288 -0.800000 0.555288
v 0.595288 0.800000 0.555288
v 0.555288 0.800000 0.595288
v 0.932685 -0.800000 0.892685
v 0.892685 -0.800000 0.932685
v 0.892685 0.800000 0.932685
v 0.932685 0.800000 0.892685
v 0.892685 -0.800000 0.555288
v 0.932685 -0.800000 0.595288
v 0.932685 0.800000 0.595288
v 0.892685 0.800000 0.555288
v 0.595288 -0.800000 -0.555288
v 0.555288 -0.800000 -0.595288
v 0.555288 0.800000 -0.595288
v 0.595288 0.800000 -0.555288
v 0.555288 -0.800000 -0.892685
v 0.595288 -0.800000 -0.932685
v 0.595288 0.800000 -0.932685
v 0.555288 0.800000 -0.892685
v 0.932685 -0.800000 -0.595288
v 0.892685 -0.800000 -0.555288
v 0.892685 0.800000 -0.555288
v 0.932685 0.800000 -0.595288
v 0.892685 -0.800000 -0.932685
v 0.932685 -0.800000 -0.892685
v 0.932685 0.800000 -0.892685
v 0.892685 0.800000 -0.932685
v -0.892685 -0.800000 -0.555288
v -0.932685 -0.800000 -0.595288
v -0.932685 0.800000 -0.595288
v -0.892685 0.800000 -0.555288
v -0.932685 -0.800000 -0.892685
v -0.892685 -0.800000 -0.932685
v -0.892685 0.800000 -0.932685
v -0.932685 0.800000 -0.892685
v -0.555288 -0.800000 -0.595288
v -0.595288 -0.800000 -0.555288
v -0.595288 0.800000 -0.555288
v -0.555288 0.800000 -0.595288
v -0.595288 -0.800000 -0.932685
v -0.555288 -0.800000 -0.892685
v -0.555288 0.800000 -0.892685
v -0.595288 0.800000 -0.932685
v -0.892685 -0.800000 0.932685
v -0.932685 -0.800000 0.892685
v -0.932685 0.800000 0.892685
v -0.892685 0.800000 0.932685
v -0.932685 -0.800000 0.595288
v -0.892685 -0.800000 0.555288
v -0.892685 0.800000 0.555288
v -0.932685 0.800000 0.595288
v -0.555288 -0.800000 0.892685
v -0.595288 -0.800000 0.932685
v -0.595288 0.800000 0.932685
v -0.555288 0.800000 0.892685
v -0.595288 -0.800000 0.555288
v -0.555288 -0.800000 0.595288
v -0.555288 0.800000 0.595288
v -0.595288 0.800000 0.555288
v -0.960000 0.600000 0.960000
v -0.960000 0.640000 1.000000
v -1.000000 0.640000 0.960000
v -0.960000 0.960000 1.000000
v -0.960000 1.000000 0.960000
v -1.000000 0.960000 0.960000
v -0.960000 0.600000 0.373333
v -1.000000 0.640000 0.373333
v -0.960000 1.000000 0.373333
v -0.960000 0.960000 0.333333
v -1.000000 0.960000 0.373333
v 0.960000 0.600000 0.960000
v 1.000000 0.640000 0.960000
v 0.960000 0.640000 1.000000
v 0.960000 1.000000 0.960000
v 0.960000 0.960000 1.000000
v 1.000000 0.960000 0.960000
v 0.960000 0.600000 0.373333
v 0.960000 0.640000 0.333333
v 1.000000 0.640000 0.373333
v 0.960000 1.000000 0.373333
v 1.000000 0.960000 0.373333
v -0.960000 0.600000 0.293333
v -0.960000 0.640000 0.333333
v -1.000000 0.640000 0.293333
v -0.960000 1.000000 0.293333
v -1.000000 0.960000 0.293333
v -0.960000 0.600000 -0.293333
v -1.000000 0.640000 -0.293333
v -0.960000 1.000000 -0.293333
v -1.000000 0.960000 -0.293333
v 0.960000 0.600000 0.293333
v 1.000000 0.640000 0.293333
v 0.960000 1.000000 0.293333
v 0.960000 0.960000 0.333333
v 1.000000 0.960000 0.293333
v 0.960000 0.600000 -0.293333
v 1.000000 0.640000 -0.293333
v 0.960000 1.000000 -0.293333
v 1.000000 0.960000 -0.293333
v -0.960000 0.600000 -0.373333
v -0.960000 0.640000 -0.333333
v -1.000000 0.640000 -0.373333
v -0.960000 0.960000 -0.333333
v -0.960000 1.000000 -0.373333
v -1.000000 0.960000 -0.373333
v -0.960000 0.600000 -0.960000
v -1.000000 0.640000 -0.960000
v -0.960000 0.640000 -1.000000
v -0.960000 1.000000 -0.960000
v -0.960000 0.960000 -1.000000
v -1.000000 0.960000 -0.960000
v 0.960000 0.600000 -0.373333
v 1.000000 0.640000 -0.373333
v 0.960000 0.640000 -0.333333
v 0.960000 1.000000 -0.373333
v 0.960000 0.960000 -0.333333
v 1.000000 0.960000 -0.373333
v 0.960000 0.600000 -0.960000
v 0.960000 0.640000 -1.000000
v 1.000000 0.640000 -0.960000
v 0.960000 1.000000 -0.960000
v 1.000000 0.960000 -0.960000
v 0.960000 0.960000 -1.000000
v -0.960000 -1.000000 0.960000
v -0.960000 -0.960000 1.000000
v -1.000000 -0.960000 0.960000
v -0.960000 -0.640000 1.000000
v -0.960000 -0.600000 0.960000
v -1.000000 -0.640000 0.960000
v -0.960000 -1.000000 0.373333
v -1.000000 -0.960000 0.373333
v -0.960000 -0.600000 0.373333
v -1.000000 -0.640000 0.373333
v 0.960000 -1.000000 0.960000
v 1.000000 -0.960000 0.960000
v 0.960000 -0.960000 1.000000
v 0.960000 -0.600000 0.960000
v 0.960000 -0.640000 1.000000
v 1.000000 -0.640000 0.960000
v 0.960000 -1.000000 0.373333
v 1.000000 -0.960000 0.373333
v 0.960000 -0.600000 0.373333
v 1.000000 -0.640000 0.373333
v 0.960000 -0.640000 0.333333
v -0.960000 -1.000000 0.293333
v -0.960000 -0.960000 0.333333
v -1.000000 -0.960000 0.293333
v -0.960000 -0.640000 0.333333
v -0.960000 -0.600000 0.293333
v -1.000000 -0.640000 0.293333
v -0.960000 -1.000000 -0.293333
v -1.000000 -0.960000 -0.293333
v -0.960000 -0.600000 -0.293333
v -1.000000 -0.640000 -0.293333
v 0.960000 -1.000000 0.293333
v 1.000000 -0.960000 0.293333
v 0.960000 -0.960000 0.333333
v 0.960000 -0.600000 0.293333
v 1.000000 -0.640000 0.293333
v 0.960000 -1.000000 -0.293333
v 0.960000 -0.960000 -0.333333
v 1.000000 -0.960000 -0.293333
v 0.960000 -0.600000 -0.293333
v 1.000000 -0.640000 -0.293333
v -0.960000 -1.000000 -0.373333
v -0.960000 -0.960000 -0.333333
v -1.000000 -0.960000 -0.373333
v -0.960000 -0.640000 -0.333333
v -0.960000 -0.600000 -0.373333
v -1.000000 -0.640000 -0.373333
v -0.960000 -1.000000 -0.960000
v -1.000000 -0.960000 -0.960000
v -0.960000 -0.960000 -1.000000
v -0.960000 -0.600000 -0.960000
v -0.960000 -0.640000 -1.000000
v -1.000000 -0.640000 -0.960000
v 0.960000 -1.000000 -0.373333
v 1.000000 -0.960000 -0.373333
v 0.960000 -0.600000 -0.373333
v 0.960000 -0.640000 -0.333333
v 1.000000 -0.640000 -0.373333
v 0.960000 -1.000000 -0.960000
v 0.960000 -0.960000 -1.000000
v 1.000000 -0.960000 -0.960000
v 0.960000 -0.600000 -0.960000
v 1.000000 -0.640000 -0.960000
v 0.960000 -0.640000 -1.000000
v 0.040001 -0.649892 -0.849892
v 0.040001 0.649892 -0.849892
v -0.039999 -0.649892 -0.849892
v 0.000001 -0.649892 -0.809892
v 0.000001 0.649892 -0.809892
v -0.039999 0.649892 -0.849892
v 0.849892 -0.649892 0.040001
v 0.849892 0.649892 0.040001
v 0.849892 -0.649892 -0.039999
v 0.809892 -0.649892 0.000001
v 0.809892 0.649892 0.000001
v 0.849892 0.649892 -0.039999
v -0.849892 -0.649892 -0.040000
v -0.849892 0.649892 -0.040000
v -0.849892 -0.649892 0.040000
v -0.809892 -0.649892 0.000000
v -0.809892 0.649892 -0.000001
v -0.849892 0.649892 0.040000
vn -1.0000 -0.0000 -0.0000
vn -0.0000 -0.0000 1.0000
vn 1.0000 -0.0000 -0.0000
vn -0.0000 -0.0000 -1.0000
vn -0.0000 -1.0000 -0.0000
vn -0.0000 1.0000 -0.0000
vn -0.5774 -0.5774 0.5773
vn -0.5774 0.5774 0.5774
vn -0.5773 -0.5774 -0.5773
vn -0.5773 0.5774 -0.5774
vn 0.5774 -0.5774 0.5773
vn 0.5774 0.5774 0.5774
vn 0.5773 -0.5774 -0.5773
vn 0.5773 0.5774 -0.5774
vn -0.5773 -0.5774 0.5773
vn -0.5773 0.5774 0.5774
vn 0.5773 -0.5774 0.5773
vn 0.5773 0.5774 0.5774
vn -0.5774 -0.5774 -0.5773
vn -0.5774 0.5774 -0.5774
vn 0.5774 -0.5774 -0.5773
vn 0.5774 0.5774 -0.5774
vn -0.5774 -0.5774 0.5774
vn -0.5774 0.5774 0.5773
vn -0.5773 -0.5774 -0.5774
vn -0.5773 0.5774 -0.5773
vn 0.5774 -0.5774 0.5774
vn 0.5774 0.5774 0.5773
vn 0.5773 -0.5774 -0.5774
vn 0.5773 0.5774 -0.5773
vn -0.5773 -0.5774 0.5774
vn -0.5773 0.5774 0.5773
vn 0.5773 -0.5774 0.5774
vn 0.5773 0.5774 0.5773
vn -0.5774 -0.5774 -0.5774
vn -0.5774 0.5774 -0.5773
vn 0.5774 -0.5774 -0.5774
vn 0.5774 0.5774 -0.5773
vn 0.7071 -0.0000 0.7071
vn -0.7071 -0.0000 0.7071
vn -0.7071 -0.0000 -0.7071
vn 0.7071 -0.0000 -0.7071
vn -0.7071 -0.7071 -0.0000
vn -0.7071 0.7071 -0.0000
vn -0.0000 -0.7071 -0.7071
vn -0.0000 0.7071 -0.7071
vn 0.7071 -0.7071 -0.0000
vn 0.7071 0.7071 -0.0000
vn -0.0000 -0.7071 0.7071
vn -0.0000 0.7071 0.7071
vt 0.707336 0.824387
vt 0.707336 0.894364
vt 0.708942 0.830952
vt 0.708942 0.887799
vt 0.688929 0.887799
vt 0.688929 0.830952
vt 0.719389 0.824387
vt 0.719389 0.894364
vt 0.708765 0.894364
vt 0.708765 0.824387
vt 0.720818 0.824387
vt 0.720818 0.894364
vt 0.654181 0.824387
vt 0.654181 0.894364
vt 0.666234 0.824387
vt 0.666234 0.894364
vt 0.655610 0.894364
vt 0.655610 0.824387
vt 0.667663 0.824387
vt 0.667663 0.894364
vt 0.653205 0.885617
vt 0.721794 0.885617
vt 0.721794 0.887366
vt 0.721794 0.901361
vt 0.653205 0.901361
vt 0.653205 0.887366
vt 0.723223 0.887366
vt 0.723223 0.901361
vt 0.721794 0.903111
vt 0.653205 0.903111
vt 0.651776 0.887366
vt 0.651776 0.901361
vt 0.721794 0.885616
vt 0.653205 0.815640
vt 0.721794 0.815640
vt 0.721794 0.817390
vt 0.721794 0.831385
vt 0.653205 0.831385
vt 0.653205 0.817390
vt 0.723223 0.817390
vt 0.723223 0.831385
vt 0.721794 0.833134
vt 0.653205 0.833134
vt 0.651776 0.817390
vt 0.651776 0.831385
vt 0.717861 0.830952
vt 0.717860 0.887799
vt 0.717861 0.887799
vt 0.666057 0.830952
vt 0.666057 0.887799
vt 0.686071 0.887799
vt 0.686071 0.830952
vt 0.657139 0.830952
vt 0.657139 0.887799
vt 0.653205 0.932492
vt 0.653205 0.934241
vt 0.651776 0.934241
vt 0.653205 0.948236
vt 0.653205 0.949986
vt 0.651776 0.948236
vt 0.721794 0.932492
vt 0.723223 0.934241
vt 0.721794 0.934241
vt 0.721794 0.949986
vt 0.721794 0.948236
vt 0.723223 0.948236
vt 0.721794 0.932491
vt 0.653205 0.862515
vt 0.653205 0.864265
vt 0.651776 0.864265
vt 0.653205 0.878260
vt 0.653205 0.880009
vt 0.651776 0.878260
vt 0.721794 0.862515
vt 0.723223 0.864265
vt 0.721794 0.864265
vt 0.721794 0.880009
vt 0.721794 0.878260
vt 0.723223 0.878260
vt 0.686071 0.934674
vt 0.686071 0.877827
vt 0.687500 0.877827
vt 0.687500 0.934674
vt 0.688929 0.877827
vt 0.688929 0.934674
vt 0.708765 0.871262
vt 0.708765 0.941239
vt 0.707336 0.941239
vt 0.707336 0.871262
vt 0.720818 0.941239
vt 0.720818 0.871262
vt 0.719389 0.871262
vt 0.719389 0.941239
vt 0.655610 0.871262
vt 0.655610 0.941239
vt 0.654181 0.941239
vt 0.654181 0.871262
vt 0.667663 0.941239
vt 0.667663 0.871262
vt 0.666234 0.871262
vt 0.666234 0.941239
vt 0.717860 0.934674
vt 0.717861 0.877827
vt 0.716432 0.877827
vt 0.716432 0.934674
vt 0.717861 0.934674
vt 0.657139 0.934674
vt 0.657139 0.877827
vt 0.658568 0.877827
vt 0.658568 0.934674
s 1
usemtl block.010
f 24/1/1 25/2/1 30/2/1 27/1/1
f 3/3/2 4/4/2 22/5/2 19/6/2
f 32/7/2 33/8/2 26/9/2 23/10/2
f 36/11/3 37/12/3 34/12/3 31/11/3
f 40/1/1 41/2/1 46/2/1 43/1/1
f 28/10/4 29/9/4 38/8/4 35/7/4
f 48/7/2 49/8/2 42/9/2 39/10/2
f 52/11/3 53/12/3 50/12/3 47/11/3
f 56/13/1 57/14/1 62/14/1 59/13/1
f 44/10/4 45/9/4 54/8/4 51/7/4
f 64/15/2 65/16/2 58/17/2 55/18/2
f 68/19/3 69/20/3 66/20/3 63/19/3
f 72/13/1 73/14/1 78/14/1 75/13/1
f 60/18/4 61/17/4 70/16/4 67/15/4
f 80/15/2 81/16/2 74/17/2 71/18/2
f 84/19/3 85/20/3 82/20/3 79/19/3
f 93/21/5 104/22/5 98/22/5 87/21/5
f 76/18/4 77/17/4 86/16/4 83/15/4
f 100/23/2 102/24/2 90/25/2 88/26/2
f 106/27/3 108/28/3 103/28/3 99/27/3
f 114/21/5 123/22/5 118/22/5 109/21/5
f 107/29/6 95/30/6 91/30/6 101/29/6
f 89/31/1 92/32/1 97/32/1 94/31/1
f 124/27/3 126/28/3 122/28/3 119/27/3
f 133/21/5 145/33/5 139/22/5 127/21/5
f 125/29/6 116/30/6 112/30/6 120/29/6
f 111/31/1 113/32/1 117/32/1 115/31/1
f 147/27/3 149/28/3 144/28/3 140/27/3
f 157/34/5 167/35/5 161/35/5 151/34/5
f 148/29/6 136/30/6 131/30/6 142/29/6
f 129/31/1 132/32/1 138/32/1 134/31/1
f 135/26/4 137/25/4 150/24/4 146/23/4
f 163/36/2 165/37/2 154/38/2 152/39/2
f 168/40/3 170/41/3 166/41/3 162/40/3
f 178/34/5 187/35/5 182/35/5 172/34/5
f 169/42/6 159/43/6 155/43/6 164/42/6
f 153/44/1 156/45/1 160/45/1 158/44/1
f 189/40/3 191/41/3 186/41/3 183/40/3
f 198/34/5 209/35/5 204/35/5 192/34/5
f 190/42/6 180/43/6 176/43/6 185/42/6
f 174/44/1 177/45/1 181/45/1 179/44/1
f 211/40/3 213/41/3 208/41/3 205/40/3
f 215/6/4 216/5/4 6/4/4 5/3/4
f 212/42/6 201/43/6 196/43/6 206/42/6
f 194/44/1 197/45/1 203/45/1 199/44/1
f 200/39/4 202/38/4 214/37/4 210/36/4
f 221/46/3 222/47/3 10/48/3 9/46/3
f 7/49/4 8/50/4 220/51/4 217/52/4
f 227/53/1 228/54/1 14/54/1 13/53/1
f 11/46/3 12/48/3 226/48/3 223/46/3
f 15/53/1 16/54/1 232/54/1 229/53/1
f 87/55/7 88/56/7 89/57/7
f 90/58/8 91/59/8 92/60/8
f 93/55/9 94/57/9 110/56/9
f 95/59/10 96/58/10 97/60/10
f 98/61/11 99/62/11 100/63/11
f 101/64/12 102/65/12 103/66/12
f 104/61/13 105/63/13 106/62/13
f 107/64/14 108/66/14 121/65/14
f 109/55/15 110/56/15 111/57/15
f 96/58/16 112/59/16 113/60/16
f 114/55/9 115/57/9 128/56/9
f 116/59/10 130/58/10 117/60/10
f 118/61/17 119/62/17 105/63/17
f 120/64/18 121/65/18 122/66/18
f 123/61/13 141/63/13 124/62/13
f 125/64/14 126/66/14 143/65/14
f 127/55/15 128/56/15 129/57/15
f 130/58/16 131/59/16 132/60/16
f 133/55/19 134/57/19 135/56/19
f 136/59/20 137/58/20 138/60/20
f 139/61/17 140/62/17 141/63/17
f 142/64/18 143/65/18 144/66/18
f 145/67/21 146/63/21 147/62/21
f 148/64/22 149/66/22 150/65/22
f 151/68/23 152/69/23 153/70/23
f 154/71/24 155/72/24 156/73/24
f 157/68/25 158/70/25 173/69/25
f 159/72/26 175/71/26 160/73/26
f 161/74/27 162/75/27 163/76/27
f 164/77/28 165/78/28 166/79/28
f 167/74/29 184/76/29 168/75/29
f 169/77/30 170/79/30 171/78/30
f 172/68/31 173/69/31 174/70/31
f 175/71/32 176/72/32 177/73/32
f 178/68/25 179/70/25 193/69/25
f 180/72/26 195/71/26 181/73/26
f 182/74/33 183/75/33 184/76/33
f 185/77/34 171/78/34 186/79/34
f 187/74/29 188/76/29 189/75/29
f 190/77/30 191/79/30 207/78/30
f 192/68/31 193/69/31 194/70/31
f 195/71/32 196/72/32 197/73/32
f 198/68/35 199/70/35 200/69/35
f 201/72/36 202/71/36 203/73/36
f 204/74/33 205/75/33 188/76/33
f 206/77/34 207/78/34 208/79/34
f 209/74/37 210/76/37 211/75/37
f 212/77/38 213/79/38 214/78/38
f 18/80/39 17/81/39 20/82/39 21/83/39
f 21/83/40 20/82/40 19/84/40 22/85/40
f 23/86/40 26/87/40 25/88/40 24/89/40
f 29/87/41 28/86/41 27/89/41 30/88/41
f 37/90/42 36/91/42 35/92/42 38/93/42
f 33/93/39 32/92/39 31/91/39 34/90/39
f 39/86/40 42/87/40 41/88/40 40/89/40
f 45/87/41 44/86/41 43/89/41 46/88/41
f 53/90/42 52/91/42 51/92/42 54/93/42
f 49/93/39 48/92/39 47/91/39 50/90/39
f 55/94/40 58/95/40 57/96/40 56/97/40
f 61/95/41 60/94/41 59/97/41 62/96/41
f 69/98/42 68/99/42 67/100/42 70/101/42
f 65/101/39 64/100/39 63/99/39 66/98/39
f 71/94/40 74/95/40 73/96/40 72/97/40
f 77/95/41 76/94/41 75/97/41 78/96/41
f 85/98/42 84/99/42 83/100/42 86/101/42
f 81/101/39 80/100/39 79/99/39 82/98/39
f 93/55/43 87/55/43 89/57/43 94/57/43
f 88/56/40 90/58/40 92/60/40 89/57/40
f 91/59/44 95/59/44 97/60/44 92/60/44
f 96/58/41 110/56/41 94/57/41 97/60/41
f 104/61/45 93/55/45 110/56/45 105/63/45
f 95/59/46 107/64/46 121/65/46 96/58/46
f 108/66/42 106/62/42 105/63/42 121/65/42
f 98/61/47 104/61/47 106/62/47 99/62/47
f 107/64/48 101/64/48 103/66/48 108/66/48
f 102/65/39 100/63/39 99/62/39 103/66/39
f 87/55/49 98/61/49 100/63/49 88/56/49
f 101/64/50 91/59/50 90/58/50 102/65/50
f 114/55/43 109/55/43 111/57/43 115/57/43
f 110/56/40 96/58/40 113/60/40 111/57/40
f 112/59/44 116/59/44 117/60/44 113/60/44
f 130/58/41 128/56/41 115/57/41 117/60/41
f 123/61/45 114/55/45 128/56/45 141/63/45
f 116/59/46 125/64/46 143/65/46 130/58/46
f 126/66/42 124/62/42 141/63/42 143/65/42
f 118/61/47 123/61/47 124/62/47 119/62/47
f 125/64/48 120/64/48 122/66/48 126/66/48
f 121/65/39 105/63/39 119/62/39 122/66/39
f 109/55/49 118/61/49 105/63/49 110/56/49
f 120/64/50 112/59/50 96/58/50 121/65/50
f 133/55/43 127/55/43 129/57/43 134/57/43
f 128/56/40 130/58/40 132/60/40 129/57/40
f 131/59/44 136/59/44 138/60/44 132/60/44
f 137/58/41 135/56/41 134/57/41 138/60/41
f 145/67/45 133/55/45 135/56/45 146/63/45
f 136/59/46 148/64/46 150/65/46 137/58/46
f 149/66/42 147/62/42 146/63/42 150/65/42
f 139/61/47 145/67/47 147/62/47 140/62/47
f 148/64/48 142/64/48 144/66/48 149/66/48
f 143/65/39 141/63/39 140/62/39 144/66/39
f 127/55/49 139/61/49 141/63/49 128/56/49
f 142/64/50 131/59/50 130/58/50 143/65/50
f 157/68/43 151/68/43 153/70/43 158/70/43
f 152/69/40 154/71/40 156/73/40 153/70/40
f 155/72/44 159/72/44 160/73/44 156/73/44
f 175/71/41 173/69/41 158/70/41 160/73/41
f 167/74/45 157/68/45 173/69/45 184/76/45
f 159/72/46 169/77/46 171/78/46 175/71/46
f 170/79/42 168/75/42 184/76/42 171/78/42
f 161/74/47 167/74/47 168/75/47 162/75/47
f 169/77/48 164/77/48 166/79/48 170/79/48
f 165/78/39 163/76/39 162/75/39 166/79/39
f 151/68/49 161/74/49 163/76/49 152/69/49
f 164/77/50 155/72/50 154/71/50 165/78/50
f 178/68/43 172/68/43 174/70/43 179/70/43
f 173/69/40 175/71/40 177/73/40 174/70/40
f 176/72/44 180/72/44 181/73/44 177/73/44
f 195/71/41 193/69/41 179/70/41 181/73/41
f 187/74/45 178/68/45 193/69/45 188/76/45
f 180/72/46 190/77/46 207/78/46 195/71/46
f 191/79/42 189/75/42 188/76/42 207/78/42
f 182/74/47 187/74/47 189/75/47 183/75/47
f 190/77/48 185/77/48 186/79/48 191/79/48
f 171/78/39 184/76/39 183/75/39 186/79/39
f 172/68/49 182/74/49 184/76/49 173/69/49
f 185/77/50 176/72/50 175/71/50 171/78/50
f 198/68/43 192/68/43 194/70/43 199/70/43
f 193/69/40 195/71/40 197/73/40 194/70/40
f 196/72/44 201/72/44 203/73/44 197/73/44
f 202/71/41 200/69/41 199/70/41 203/73/41
f 209/74/45 198/68/45 200/69/45 210/76/45
f 201/72/46 212/77/46 214/78/46 202/71/46
f 213/79/42 211/75/42 210/76/42 214/78/42
f 204/74/47 209/74/47 211/75/47 205/75/47
f 212/77/48 206/77/48 208/79/48 213/79/48
f 207/78/39 188/76/39 205/75/39 208/79/39
f 192/68/49 204/74/49 188/76/49 193/69/49
f 206/77/50 196/72/50 195/71/50 207/78/50
f 216/85/41 215/84/41 218/82/41 219/83/41
f 219/83/42 218/82/42 217/81/42 220/80/42
f 222/102/42 221/103/42 224/104/42 225/105/42
f 225/105/39 224/104/39 223/103/39 226/106/39
f 228/107/40 227/108/40 230/109/40 231/110/40
f 231/110/41 230/109/41 229/108/41 232/107/41
f 17/52/2 18/51/2 2/50/2 1/49/2
